<?xml version="1.0" encoding="UTF-8"?>
<svg id="Layer_1" data-name="Layer 1" xmlns="http://www.w3.org/2000/svg" xmlns:xlink="http://www.w3.org/1999/xlink" viewBox="0 0 536.11 536.11">
  <defs>
    <style>
      .cls-1 {
        fill: #fff;
      }

      .cls-2 {
        stroke: #000;
        stroke-miterlimit: 10;
        stroke-width: 6px;
      }

      .cls-2, .cls-3 {
        fill: none;
      }

      .cls-4, .cls-5 {
        fill: #2196ca;
      }

      .cls-5 {
        filter: url(#drop-shadow-16);
      }

      .cls-6 {
        clip-path: url(#clippath);
      }

      .cls-7 {
        fill: #1658a4;
      }
    </style>
    <clipPath id="clippath">
      <circle class="cls-3" cx="268.06" cy="268.06" r="268.06"/>
    </clipPath>
    <filter id="drop-shadow-16" filterUnits="userSpaceOnUse">
      <feOffset dx="1" dy="-6"/>
      <feGaussianBlur result="blur" stdDeviation="0"/>
      <feFlood flood-color="#0f3963" flood-opacity="1"/>
      <feComposite in2="blur" operator="in"/>
      <feComposite in="SourceGraphic"/>
    </filter>
  </defs>
  <circle class="cls-7" cx="268.06" cy="268.06" r="268.06"/>
  <g class="cls-6">
    <g>
      <path class="cls-1" d="m307.1,169.69c-2.06,4.23-4.35,11.42-14.53,20.17-3.79,3.26-17.34,12.34-31.65,9-12.67-2.95-21.4-7.99-29.85-24.32,0,0-11.98-30.89-8.35-60.13.49-3.98,1.39-8.34,4.37-12.55,6.19-8.77,16.99-10.71,21.15-11.46,24.01-4.31,58.43,9.79,64.32,39.96,3.23,16.52-3.81,35.94-5.46,39.33Z"/>
      <path class="cls-1" d="m149.28,277.7c-.9-14.6-1.8-29.21-2.7-43.81-11.86-.31-23.73-.63-35.59-.94-3.33,13.01-6.34,28.11-8.22,45.02-2.99,26.81-2.7,40.83-1.75,49.88,1.92,18.28,3.21,28.91,12,35.18,8.48,6.05,20.76,5.76,29.79,2.16,5.27-2.1,8.75-5.1,13.88-10.25,7.19-7.2,16.82-17.78,27.1-32.22.45,53.19-.65,109.04-3.77,167.29-1.85,34.49-4.31,68.03-7.28,100.56,29.84,1.62,59.67,3.24,89.51,4.85,1.7-10.08,3.32-20.37,4.85-30.87,1.32-9.07,2.53-18.02,3.64-26.83,1.83,9.86,3.76,19.84,5.8,29.93,1.89,9.38,3.82,18.64,5.8,27.77,31.23-1.48,62.46-2.97,93.69-4.45-7.58-32.47-14.33-68.29-19.28-107.17-7.06-55.49-9.07-106.3-8.36-150.98,12.76-17.43,25.52-34.87,38.28-52.3-2.49-9.55-7.62-24.16-18.87-38.82-4.12-5.37-9.85-12.7-19.41-19.14-16.73-11.26-34.43-12.54-43.95-12.4-12.49,33.79-24.98,67.58-37.48,101.37-10.78-33.34-21.57-66.68-32.35-100.02-4.25-.85-11.24-1.7-19.41,0-2.77.57-11.11,2.57-21.84,10.78-21.93,16.8-40.84,49.68-44.08,55.4Z"/>
      <g>
        <path class="cls-2" d="m235.81,213.96c-3.18,1.71-7.84,4.69-12.17,9.63-8.55,9.75-10.31,20.84-11.36,27.44-.67,4.22-1.23,10.31-.51,17.72"/>
        <path class="cls-2" d="m302.21,211.64c2.84,4.07,6.23,9.91,8.63,17.46,1.03,3.24,4.31,14.46,2.36,29.05-1.38,10.28-4.83,18.33-7.68,23.62"/>
        <circle class="cls-2" cx="300.66" cy="288.27" r="7.72"/>
        <g>
          <path class="cls-2" d="m217.08,304.26l11.96-.58-.99-20.45s.59-14.39-16.39-13.57"/>
          <path class="cls-2" d="m209.77,304.61l-11.96.58-.99-20.45s-1.97-14.27,15.01-15.08"/>
        </g>
      </g>
      <path class="cls-1" d="m113.27,188.43c.6-7.1,18.25-16.5,22.43-16.57,4.18-.07,15.09,21.09,15.93,26.99.83,5.89-4.34,22.07-9.72,26.07-5.38,4-13.23,2.05-16.71.66s-9.51-3.38-11.41-7.98-.51-29.17-.51-29.17Z"/>
      <rect class="cls-5" x="333.87" y="275.59" width="105" height="140.61" transform="translate(409.4 -172.17) rotate(50.71)"/>
      <path class="cls-4" d="m222.95,140.22c-.3-.8-.1-2.37-1.01-3.95-.49-.85-1.07-1.17-1.89-1.97,0,0,0,0,0,0-3.1-3.62-2.59-8.62-2.53-10.92.16-5.7-2.08-6.9-3.24-13.04-.93-4.94-.98-12.2,3.13-22.04,2.16-.69,7.49-2.72,11.26-8.09,1.61-2.29,2.48-4.54,2.97-6.27,5.84-4.1,10.8-5.35,14.29-5.73,3.92-.42,6.24.24,10.45-.74,4.59-1.07,8.01-3.29,10.18-4.99,6.17,2.26,10.58,4.95,13.55,7.08,2.85,2.04,4.86,3.91,8.09,4.25,3.56.37,6.68-1.33,8.83-2.9,5.53,2.35,7.75,5.29,8.76,7.48,1.84,3.95.49,7.02,2.76,9.91,2.14,2.71,5.92,3.28,8.56,3.37,3.2,6.37,3.71,11.5,3.57,15.03-.22,5.74-2.17,7.46-2.56,15.43-.27,5.59.6,6.56.03,10.75-.76,5.57-3.13,9.84-5,12.58-.5-3.02-5.94-7.99-9.28-13.08-4.78-7.27-11.15-10.65-13.65-11.93-5.25-2.7-6.04-1.55-15.57-5.06-3.52-1.29-8.53-3.16-13.95-6.27-4.15-2.38-9.91-6.27-15.87-12.54-5.1,5.57-8.83,10.66-11.42,14.56-2.95,4.42-4.76,7.18-6.27,11.12-2.59,6.78-4.63,13.06-4.18,17.95Z"/>
      <path class="cls-1" d="m394.18,372.63c-2.56-5.26,5.99-19.36,8.92-21.18,2.93-1.82,19.58,8.48,22.65,12.28s6.22,17.4,4.09,22.5c-2.13,5.1-8.52,7.05-11.57,7.54s-8.16,1.65-11.45-.79c-3.28-2.44-12.64-20.34-12.64-20.34Z"/>
    </g>
  </g>
</svg>